<svg xmlns="http://www.w3.org/2000/svg" width="480" height="480" viewBox="0 0 480 480" fill="none">
  <defs>
    <clipPath id="circleClip"><circle cx="240" cy="240" r="210"/></clipPath>
    <style>
      .thin{stroke:#C79A80;stroke-width:2.2;stroke-linecap:round;stroke-linejoin:round;fill:none}
      .soft{stroke:#DFA19B;stroke-width:1.5;stroke-linecap:round;stroke-linejoin:round;fill:none}
    </style>
  </defs>

  <circle cx="240" cy="240" r="220" fill="#F7F1EE"/>
  <circle cx="240" cy="240" r="188" fill="#EFE6E0"/>
  

  <g clip-path="url(#circleClip)">

    <ellipse cx="200.9" cy="103.1" rx="36" ry="12" transform="rotate(-10 200.9 103.1)" fill="#EFC6C2" fill-opacity="0.72"/>
    <ellipse cx="279.1" cy="103.1" rx="36" ry="12" transform="rotate(10 279.1 103.1)" fill="#EFC6C2" fill-opacity="0.72"/>
    <ellipse cx="210.1" cy="126.1" rx="28" ry="10" transform="rotate(-14 210.1 126.1)" fill="#EAD8CD" fill-opacity="0.88"/>
    <ellipse cx="269.9" cy="126.1" rx="28" ry="10" transform="rotate(14 269.9 126.1)" fill="#EAD8CD" fill-opacity="0.88"/>
    <circle cx="240" cy="110" r="7" fill="#AA6F4A"/>
    <rect x="234.825" y="114.6" width="9" height="58" rx="6" fill="#AA6F4A"/>
    <circle cx="237.125" cy="108.275" r="1.7" fill="white"/>
    <circle cx="242.875" cy="108.275" r="1.7" fill="white"/>
    <path d="M235.4 101.95 L221.6 85.85" class="thin"/>
    <path d="M244.6 101.95 L258.4 85.85" class="thin"/>
    <circle cx="221.6" cy="85.85" r="2.4" fill="#C79A80"/>
    <circle cx="258.4" cy="85.85" r="2.4" fill="#C79A80"/>

    <path d="M215 185 C190 192, 180 225, 198 265 C206 285, 218 304, 232 320 C240 328, 252 328, 258 320 C274 300, 282 278, 286 252 C291 223, 280 197, 254 186 C247 183, 236 183, 229 185 Z" fill="#E4CABC" stroke="#C79A80" stroke-width="1.7"/>
    <path d="M264 185 C289 192, 299 225, 281 265 C273 285, 261 304, 247 320 C239 328, 227 328, 221 320 C205 300, 197 278, 193 252 C188 223, 199 197, 225 186 C232 183, 243 183, 250 185 Z" fill="#E4CABC" stroke="#C79A80" stroke-width="1.7"/>
    <path d="M221 192 C213 180, 199 182, 194 194 C190 202, 194 214, 202 220" class="soft"/>
    <path d="M233 179 C228 170, 214 168, 207 178 C202 185, 204 198, 212 203" class="soft"/>
    <path d="M247 179 C252 170, 266 168, 273 178 C278 185, 276 198, 268 203" class="soft"/>
    <path d="M259 192 C267 180, 281 182, 286 194 C290 202, 286 214, 278 220" class="soft"/>
    <path d="M168 303 C175 282, 191 286, 202 296 C215 307, 227 322, 233 344 C220 337, 205 330, 188 320 C176 313, 168 309, 168 303 Z" fill="#DFC2AD"/>
    <path d="M312 303 C305 282, 289 286, 278 296 C265 307, 253 322, 247 344 C260 337, 275 330, 292 320 C304 313, 312 309, 312 303 Z" fill="#DFC2AD"/>
    <path d="M191 312 C200 322, 213 330, 226 338" class="soft"/>
    <path d="M289 312 C280 322, 267 330, 254 338" class="soft"/>
    <path d="M90 308 C108 248, 82 202, 106 158" stroke="#B9C4A8" stroke-width="2.2" fill="none" stroke-linecap="round"/>
<ellipse cx="100" cy="283" rx="8" ry="18" transform="rotate(-12 100 283)" fill="#B9C4A8"/>
<ellipse cx="86.0" cy="267" rx="7" ry="16" transform="rotate(12 86.0 267)" fill="#C8D1BB"/>
<ellipse cx="108" cy="250" rx="8" ry="18" transform="rotate(14 108 250)" fill="#B9C4A8"/>
<ellipse cx="82.8" cy="234" rx="7" ry="16" transform="rotate(-14 82.8 234)" fill="#C8D1BB"/>
<ellipse cx="102" cy="216" rx="8" ry="18" transform="rotate(-10 102 216)" fill="#B9C4A8"/>
<ellipse cx="85.2" cy="200" rx="7" ry="16" transform="rotate(10 85.2 200)" fill="#C8D1BB"/>
<ellipse cx="108" cy="184" rx="8" ry="18" transform="rotate(12 108 184)" fill="#B9C4A8"/>
<ellipse cx="82.8" cy="168" rx="7" ry="16" transform="rotate(-12 82.8 168)" fill="#C8D1BB"/>
<circle cx="112" cy="166" r="5" fill="#E9B2AA"/>
<circle cx="126" cy="188" r="5.5" fill="#B9C4A8"/>
<circle cx="150" cy="166" r="4" fill="#E9B2AA"/><path d="M390 308 C372 248, 398 202, 374 158" stroke="#B9C4A8" stroke-width="2.2" fill="none" stroke-linecap="round"/>
<ellipse cx="380" cy="283" rx="8" ry="18" transform="rotate(12 380 283)" fill="#B9C4A8"/>
<ellipse cx="394.0" cy="267" rx="7" ry="16" transform="rotate(-12 394.0 267)" fill="#C8D1BB"/>
<ellipse cx="372" cy="250" rx="8" ry="18" transform="rotate(-14 372 250)" fill="#B9C4A8"/>
<ellipse cx="397.2" cy="234" rx="7" ry="16" transform="rotate(14 397.2 234)" fill="#C8D1BB"/>
<ellipse cx="378" cy="216" rx="8" ry="18" transform="rotate(10 378 216)" fill="#B9C4A8"/>
<ellipse cx="394.8" cy="200" rx="7" ry="16" transform="rotate(-10 394.8 200)" fill="#C8D1BB"/>
<ellipse cx="372" cy="184" rx="8" ry="18" transform="rotate(-12 372 184)" fill="#B9C4A8"/>
<ellipse cx="397.2" cy="168" rx="7" ry="16" transform="rotate(12 397.2 168)" fill="#C8D1BB"/>
<circle cx="368" cy="166" r="5" fill="#E9B2AA"/>
<circle cx="354" cy="188" r="5.5" fill="#B9C4A8"/>
<circle cx="330" cy="166" r="4" fill="#E9B2AA"/><circle cx="145" cy="250" r="3" fill="#E9B2AA"/>
<circle cx="162" cy="228" r="3" fill="#B9C4A8"/>
<circle cx="318" cy="228" r="3" fill="#B9C4A8"/>
<circle cx="335" cy="248" r="3" fill="#E9B2AA"/>
<circle cx="175" cy="208" r="2.4" fill="#E9B2AA"/>
<circle cx="305" cy="208" r="2.4" fill="#B9C4A8"/>
<circle cx="240" cy="348" r="4" fill="#E9B2AA"/>
    <path d="M204 364 C221 350, 232 350, 240 371 C231 379, 217 387, 200 388 C192 388, 187 384, 184 379 C190 374, 197 369, 204 364 Z" fill="#EFC6C2" fill-opacity="0.65"/>
    <path d="M276 364 C259 350, 248 350, 240 371 C249 379, 263 387, 280 388 C288 388, 293 384, 296 379 C290 374, 283 369, 276 364 Z" fill="#EFC6C2" fill-opacity="0.65"/>
    <path d="M236 363 C240 357, 244 357, 248 363 C248 370, 245 375, 240 378 C235 375, 232 370, 232 363 Z" fill="#E9B2AA"/>
  </g>
</svg>