<svg xmlns="http://www.w3.org/2000/svg" width="480" height="480" viewBox="0 0 480 480" fill="none">
  <defs>
    <clipPath id="circleClip"><circle cx="240" cy="240" r="210"/></clipPath>
    <style>
      .thin{stroke:#C79A80;stroke-width:2.2;stroke-linecap:round;stroke-linejoin:round;fill:none}
      .soft{stroke:#DFA19B;stroke-width:1.5;stroke-linecap:round;stroke-linejoin:round;fill:none}
    </style>
  </defs>

  <circle cx="240" cy="240" r="220" fill="#F7F1EE"/>
  <circle cx="240" cy="240" r="188" fill="#EFE6E0"/>
  <circle cx="240" cy="240" r="210" fill="none" stroke="#FBF8F6" stroke-width="6"/>

  <g clip-path="url(#circleClip)">
    <rect x="130" y="278" width="220" height="76" rx="36" fill="#EDC9C4" opacity="0.9"/>
    <ellipse cx="104" cy="292" rx="34" ry="66" fill="#D8BFB2"/>
    <path d="M114 210 C108 168, 133 146, 173 150 C198 153, 213 168, 210 195 C208 216, 196 232, 178 238 C152 246, 118 232, 114 210 Z" fill="#A86F4A"/>
    <circle cx="168" cy="176" r="28" fill="#A86F4A"/>
    <path d="M124 206 C130 174, 154 160, 184 164 C200 166, 210 179, 208 193 C206 213, 193 236, 168 240 C145 243, 121 228, 124 206 Z" fill="#E6BEA6"/>
    <path d="M145 177 C150 170, 160 166, 173 166 C187 166, 197 171, 201 179" class="soft"/>
    <path d="M155 197 C162 205, 174 205, 181 197" class="soft"/>
    <path d="M128 216 L123 292 C122 307, 130 320, 142 320 H186 C199 320, 206 306, 204 294 L196 213 Z" fill="#EAB7B7"/>
    <path d="M183 232 C205 238, 214 250, 218 266 C224 287, 230 294, 236 292 C242 289, 244 282, 242 274 C236 254, 222 235, 198 224 Z" fill="#E6BEA6"/>
    <path d="M184 246 C194 250, 202 258, 206 269" class="soft"/>
    <path d="M200 228 C226 225, 254 218, 285 201 C324 180, 355 180, 394 203 L404 216 C368 195, 338 198, 302 219 C267 239, 237 248, 208 249 Z" fill="#E2BEA4"/>
    <path d="M286 201 C329 176, 370 180, 410 204 L424 216 L430 208 C396 177, 350 168, 299 194 Z" fill="#F8F3F0"/>
    <path d="M268 265 C252 253, 237 255, 232 276 C229 289, 235 300, 247 302 C259 304, 271 296, 272 282 C272 276, 271 270, 268 265 Z" fill="#E2BEA4"/>
    <rect x="162" y="346" width="42" height="22" rx="10" fill="#B8C3A7"/>
    <path d="M155 372 q16 -14 31 0" class="soft"/>
    <rect x="236" y="356" width="22" height="20" rx="4" fill="#D8A98D"/>
    <rect x="244" y="348" width="6" height="10" rx="2" fill="#C39171"/>
    <ellipse cx="290" cy="366" rx="18" ry="7" fill="#B47F58" opacity="0.25"/>
    <rect x="276" y="351" width="28" height="22" rx="2" fill="#F8F3F0"/>
    <path d="M289 351 q5 8 0 14" class="soft"/>

    <ellipse cx="290.52" cy="105.68" rx="36" ry="12" transform="rotate(-10 290.52 105.68)" fill="#EFC6C2" fill-opacity="0.72"/>
    <ellipse cx="339.48" cy="105.68" rx="36" ry="12" transform="rotate(10 339.48 105.68)" fill="#EFC6C2" fill-opacity="0.72"/>
    <ellipse cx="296.28" cy="120.08" rx="28" ry="10" transform="rotate(-14 296.28 120.08)" fill="#EAD8CD" fill-opacity="0.88"/>
    <ellipse cx="333.72" cy="120.08" rx="28" ry="10" transform="rotate(14 333.72 120.08)" fill="#EAD8CD" fill-opacity="0.88"/>
    <circle cx="315" cy="110" r="7" fill="#AA6F4A"/>
    <rect x="311.76" y="112.88" width="9" height="58" rx="6" fill="#AA6F4A"/>
    <circle cx="313.2" cy="108.92" r="1.7" fill="white"/>
    <circle cx="316.8" cy="108.92" r="1.7" fill="white"/>
    <path d="M312.12 104.96 L303.48 94.88" class="thin"/>
    <path d="M317.88 104.96 L326.52 94.88" class="thin"/>
    <circle cx="303.48" cy="94.88" r="2.4" fill="#C79A80"/>
    <circle cx="326.52" cy="94.88" r="2.4" fill="#C79A80"/>

    <path d="M327 118 C340 132, 352 134, 372 132 C355 116, 342 111, 327 118" fill="none" stroke="#DFA19B" stroke-dasharray="4 6" stroke-width="1.8"/>
    <path d="M372 132 C384 137, 386 144, 382 150 C377 146, 372 142, 368 136" fill="none" stroke="#DFA19B" stroke-dasharray="4 6" stroke-width="1.8"/>
<path d="M355 325 C373 265, 347 219, 371 175" stroke="#B9C4A8" stroke-width="2.2" fill="none" stroke-linecap="round"/>
<ellipse cx="365" cy="300" rx="8" ry="18" transform="rotate(-12 365 300)" fill="#B9C4A8"/>
<ellipse cx="351.0" cy="284" rx="7" ry="16" transform="rotate(12 351.0 284)" fill="#C8D1BB"/>
<ellipse cx="373" cy="267" rx="8" ry="18" transform="rotate(14 373 267)" fill="#B9C4A8"/>
<ellipse cx="347.8" cy="251" rx="7" ry="16" transform="rotate(-14 347.8 251)" fill="#C8D1BB"/>
<ellipse cx="367" cy="233" rx="8" ry="18" transform="rotate(-10 367 233)" fill="#B9C4A8"/>
<ellipse cx="350.2" cy="217" rx="7" ry="16" transform="rotate(10 350.2 217)" fill="#C8D1BB"/>
<ellipse cx="373" cy="201" rx="8" ry="18" transform="rotate(12 373 201)" fill="#B9C4A8"/>
<ellipse cx="347.8" cy="185" rx="7" ry="16" transform="rotate(-12 347.8 185)" fill="#C8D1BB"/>
<circle cx="377" cy="183" r="5" fill="#E9B2AA"/>
<circle cx="391" cy="205" r="5.5" fill="#B9C4A8"/>
<circle cx="415" cy="183" r="4" fill="#E9B2AA"/>
    <ellipse cx="129" cy="176" rx="8" ry="4" fill="#C8D1BB" transform="rotate(-12 129 176)"/>
    <ellipse cx="112" cy="188" rx="7" ry="4" fill="#B9C4A8" transform="rotate(18 112 188)"/>
    <circle cx="98" cy="206" r="4" fill="#E9B2AA"/>
    <circle cx="120" cy="182" r="2.4" fill="#E9B2AA"/>
    <circle cx="250" cy="188" r="3.2" fill="#B9C4A8"/>
    <circle cx="262" cy="184" r="2.8" fill="#C8D1BB"/>
    <circle cx="254" cy="176" r="2.5" fill="#B9C4A8"/>
  </g>
</svg>