<svg xmlns="http://www.w3.org/2000/svg" width="480" height="480" viewBox="0 0 480 480" fill="none">
  <defs>
    <clipPath id="circleClip"><circle cx="240" cy="240" r="210"/></clipPath>
    <style>
      .thin{stroke:#C79A80;stroke-width:2.2;stroke-linecap:round;stroke-linejoin:round;fill:none}
      .soft{stroke:#DFA19B;stroke-width:1.5;stroke-linecap:round;stroke-linejoin:round;fill:none}
    </style>
  </defs>

  <circle cx="240" cy="240" r="220" fill="#F7F1EE"/>
  <circle cx="240" cy="240" r="188" fill="#EFE6E0"/>
  

  <g clip-path="url(#circleClip)">
    <path d="M62 340 C116 320, 170 330, 220 362 C261 389, 305 392, 418 344 L418 420 H62 Z" fill="#E9C0BC"/>
    <path d="M178 158 C198 144, 231 148, 247 176 C260 198, 258 238, 252 283 C245 330, 222 343, 196 323 C171 303, 156 267, 157 226 C157 195, 160 171, 178 158 Z" fill="#E8C7B0" stroke="#D9AE95" stroke-width="1.8"/>
    <path d="M199 153 C189 139, 176 137, 169 147 C163 155, 165 170, 175 177" class="soft"/>
    <path d="M215 145 C209 131, 197 127, 189 136 C181 145, 182 158, 190 166" class="soft"/>
    <path d="M231 145 C225 131, 213 127, 205 136 C197 145, 198 158, 206 166" class="soft"/>
    <path d="M247 149 C241 136, 230 133, 221 141 C213 148, 214 161, 223 169" class="soft"/>
    <path d="M129 276 C151 250, 157 230, 163 206 C173 166, 195 152, 220 160 C242 167, 251 188, 247 209 C242 239, 217 265, 195 285 C173 305, 151 319, 129 340 L92 305 C105 292, 118 286, 129 276 Z" fill="#E7C2AA"/>
    <path d="M173 255 C190 244, 207 232, 222 215" class="soft"/>
    <path d="M253 244 C265 262, 282 279, 300 297 C322 320, 334 339, 346 370 L395 334 C381 304, 365 285, 343 262 C324 242, 300 220, 279 202 C260 185, 243 190, 232 207 C224 220, 228 236, 253 244 Z" fill="#E8C7B0"/>
    <path d="M287 278 C271 259, 257 245, 243 232" class="soft"/>

    <ellipse cx="288.12" cy="123.08" rx="36" ry="12" transform="rotate(-10 288.12 123.08)" fill="#EFC6C2" fill-opacity="0.72"/>
    <ellipse cx="343.88" cy="123.08" rx="36" ry="12" transform="rotate(10 343.88 123.08)" fill="#EFC6C2" fill-opacity="0.72"/>
    <ellipse cx="294.68" cy="139.48" rx="28" ry="10" transform="rotate(-14 294.68 139.48)" fill="#EAD8CD" fill-opacity="0.88"/>
    <ellipse cx="337.32" cy="139.48" rx="28" ry="10" transform="rotate(14 337.32 139.48)" fill="#EAD8CD" fill-opacity="0.88"/>
    <circle cx="316" cy="128" r="7" fill="#AA6F4A"/>
    <rect x="312.31" y="131.28" width="9" height="58" rx="6" fill="#AA6F4A"/>
    <circle cx="313.95" cy="126.77" r="1.7" fill="white"/>
    <circle cx="318.05" cy="126.77" r="1.7" fill="white"/>
    <path d="M312.72 122.26 L302.88 110.78" class="thin"/>
    <path d="M319.28 122.26 L329.12 110.78" class="thin"/>
    <circle cx="302.88" cy="110.78" r="2.4" fill="#C79A80"/>
    <circle cx="329.12" cy="110.78" r="2.4" fill="#C79A80"/>

    <path d="M319 140 C308 165, 333 175, 350 198 C360 212, 363 222, 360 239" fill="none" stroke="#DFA19B" stroke-dasharray="4 7" stroke-width="1.8"/>
<path d="M110 315 C128 255, 102 209, 126 165" stroke="#B9C4A8" stroke-width="2.2" fill="none" stroke-linecap="round"/>
<ellipse cx="120" cy="290" rx="8" ry="18" transform="rotate(-12 120 290)" fill="#B9C4A8"/>
<ellipse cx="106.0" cy="274" rx="7" ry="16" transform="rotate(12 106.0 274)" fill="#C8D1BB"/>
<ellipse cx="128" cy="257" rx="8" ry="18" transform="rotate(14 128 257)" fill="#B9C4A8"/>
<ellipse cx="102.8" cy="241" rx="7" ry="16" transform="rotate(-14 102.8 241)" fill="#C8D1BB"/>
<ellipse cx="122" cy="223" rx="8" ry="18" transform="rotate(-10 122 223)" fill="#B9C4A8"/>
<ellipse cx="105.2" cy="207" rx="7" ry="16" transform="rotate(10 105.2 207)" fill="#C8D1BB"/>
<ellipse cx="128" cy="191" rx="8" ry="18" transform="rotate(12 128 191)" fill="#B9C4A8"/>
<ellipse cx="102.8" cy="175" rx="7" ry="16" transform="rotate(-12 102.8 175)" fill="#C8D1BB"/>
<circle cx="132" cy="173" r="5" fill="#E9B2AA"/>
<circle cx="146" cy="195" r="5.5" fill="#B9C4A8"/>
<circle cx="170" cy="173" r="4" fill="#E9B2AA"/><path d="M376 330 C358 270, 384 224, 360 180" stroke="#B9C4A8" stroke-width="2.2" fill="none" stroke-linecap="round"/>
<ellipse cx="366" cy="305" rx="8" ry="18" transform="rotate(12 366 305)" fill="#B9C4A8"/>
<ellipse cx="380.0" cy="289" rx="7" ry="16" transform="rotate(-12 380.0 289)" fill="#C8D1BB"/>
<ellipse cx="358" cy="272" rx="8" ry="18" transform="rotate(-14 358 272)" fill="#B9C4A8"/>
<ellipse cx="383.2" cy="256" rx="7" ry="16" transform="rotate(14 383.2 256)" fill="#C8D1BB"/>
<ellipse cx="364" cy="238" rx="8" ry="18" transform="rotate(10 364 238)" fill="#B9C4A8"/>
<ellipse cx="380.8" cy="222" rx="7" ry="16" transform="rotate(-10 380.8 222)" fill="#C8D1BB"/>
<ellipse cx="358" cy="206" rx="8" ry="18" transform="rotate(-12 358 206)" fill="#B9C4A8"/>
<ellipse cx="383.2" cy="190" rx="7" ry="16" transform="rotate(12 383.2 190)" fill="#C8D1BB"/>
<circle cx="354" cy="188" r="5" fill="#E9B2AA"/>
<circle cx="340" cy="210" r="5.5" fill="#B9C4A8"/>
<circle cx="316" cy="188" r="4" fill="#E9B2AA"/>
    <circle cx="350" cy="200" r="4" fill="#E9B2AA"/>
    <circle cx="108" cy="250" r="5" fill="#E9B2AA"/>
    <circle cx="372" cy="155" r="3.5" fill="#C8D1BB"/>
    <circle cx="162" cy="162" r="4" fill="#E9B2AA"/>
  </g>
</svg>