<svg xmlns="http://www.w3.org/2000/svg" viewBox="0 0 24 24" width="24" height="24" fill="currentColor" stroke="none" fill-rule="evenodd">
  <path d="M8.9 9.4c-1.7 0-2.7 1.3-2.6 3 .1 1.3.8 2 .9 3.3.1 1.6-.4 2.9.9 4.1.9.8 2.5 1 3.7.3 1.3-.7 1.5-2.2 1.4-3.6-.1-1.4.5-2.2.8-3.6.4-1.8-.2-3.4-2.1-3.5-1.3-.1-2.6 0-3.9 0z M10.45 13a.95.95 0 1 0 1.9 0 .95.95 0 1 0-1.9 0z M9.75 16.3a.95.95 0 1 0 1.9 0 .95.95 0 1 0-1.9 0z"></path>
  <ellipse cx="8.6" cy="6.4" rx="1.4" ry="1.7"></ellipse>
  <ellipse cx="11.4" cy="5.5" rx="1.1" ry="1.5"></ellipse>
  <ellipse cx="13.5" cy="5.8" rx="1" ry="1.3"></ellipse>
  <ellipse cx="15.1" cy="6.9" rx="0.85" ry="1.1"></ellipse>
</svg>